<?xml version="1.0" standalone="no"?>
<!DOCTYPE svg PUBLIC "-//W3C//DTD SVG 20010904//EN"
 "http://www.w3.org/TR/2001/REC-SVG-20010904/DTD/svg10.dtd">
<svg version="1.0" xmlns="http://www.w3.org/2000/svg"
 width="1024.000000pt" height="1024.000000pt" viewBox="0 0 1024.000000 1024.000000"
 preserveAspectRatio="xMidYMid meet">

<g transform="translate(0.000000,1024.000000) scale(0.100000,-0.100000)"
fill="#000000" stroke="none">
<path d="M990 10060 l0 -180 -495 0 -495 0 0 -325 0 -325 103 0 c57 0 152 3
210 7 l107 6 0 58 c0 32 5 61 11 65 8 4 7 9 -2 15 -11 7 -10 9 4 9 15 0 17
-10 17 -75 l0 -75 288 0 287 0 -1 308 c-3 691 -3 692 -19 692 -13 0 -15 -27
-15 -180z m-545 -650 c3 -6 -1 -7 -9 -4 -18 7 -21 14 -7 14 6 0 13 -4 16 -10z"/>
<path d="M1056 9743 c4 -274 8 -499 9 -500 1 -2 72 -3 159 -4 136 0 156 -2
145 -15 -9 -11 -43 -14 -160 -14 l-149 0 0 -265 0 -265 265 0 265 0 0 265 c0
205 -3 265 -12 266 -7 0 -57 1 -112 0 -80 0 -96 2 -87 12 15 18 118 22 139 5
12 -10 14 -10 8 0 -4 7 -4 12 1 11 4 -1 20 -1 36 0 l27 1 0 315 0 315 -232 2
c-128 1 -216 3 -195 5 l37 4 0 180 0 179 -75 0 -75 0 6 -497z"/>
<path d="M1572 10060 c2 -136 6 -180 16 -180 9 0 12 43 12 180 0 153 -2 180
-15 180 -13 0 -15 -25 -13 -180z"/>
<path d="M1613 10013 c4 -124 7 -351 7 -504 0 -251 2 -277 16 -275 9 0 19 -5
21 -11 3 -8 -4 -13 -16 -13 -21 0 -21 -3 -21 -265 l0 -265 278 0 c182 0 272
-4 262 -10 -9 -6 -125 -10 -277 -10 -218 0 -263 -2 -263 -14 0 -8 -7 -16 -15
-20 -10 -4 -15 1 -15 14 0 19 -8 20 -260 20 l-260 0 0 -320 0 -320 249 0 c142
0 261 4 276 10 17 7 24 7 20 0 -4 -7 92 -10 280 -10 l285 0 -6 -25 c-4 -15 -2
-25 5 -25 8 0 11 -85 11 -294 l0 -294 -22 -6 -23 -7 24 -10 c13 -5 21 -13 17
-17 -4 -4 -132 -7 -284 -7 l-277 0 -3 -422 -2 -422 292 -3 c161 -2 416 -2 566
0 l272 2 0 423 c0 363 2 426 15 443 14 17 15 -27 11 -423 l-4 -443 278 0 279
0 7 58 c5 42 -2 701 -9 810 0 7 -7 10 -16 7 -12 -4 -12 -2 2 9 19 14 18 10 17
529 l0 97 -279 0 c-243 0 -280 -2 -285 -16 -3 -8 -2 -12 4 -9 12 8 14 -554 1
-573 -18 -29 -21 26 -21 305 1 157 -1 287 -2 289 -2 2 -108 4 -236 4 -128 1
-234 5 -237 10 -4 6 92 11 232 12 l238 3 5 38 c3 21 10 38 15 38 14 0 19 -50
6 -65 -8 -10 -5 -12 12 -10 12 1 140 3 285 3 l262 1 0 315 0 316 -306 -2
c-168 0 -308 2 -311 5 -4 3 6 7 20 7 15 1 32 3 37 4 6 1 134 3 285 4 l275 1 0
477 c-1 454 3 514 27 489 5 -4 9 -223 11 -487 l3 -479 27 -1 27 -1 -27 -11
-28 -11 0 -313 0 -313 975 0 975 0 1 43 c1 23 0 49 -1 57 -1 8 1 12 5 8 12
-12 21 -115 14 -165 -4 -26 -19 -20 -19 8 0 19 -16 19 -975 19 l-975 -1 -1
-179 c0 -99 0 -208 -1 -242 0 -43 -5 -69 -17 -83 -15 -18 -15 -19 2 -6 15 12
17 11 15 -10 -2 -13 -10 -27 -18 -31 -12 -5 -11 -7 3 -7 13 -1 17 -7 15 -23
-2 -13 -9 -22 -15 -21 -17 4 -24 -25 -7 -31 9 -3 14 -14 13 -23 0 -10 -1 -208
0 -440 l1 -423 53 3 52 2 -3 434 c-3 433 -3 434 -25 452 -21 18 -14 18 272 19
268 0 295 2 307 18 13 16 14 16 20 -5 6 -23 7 -23 238 -25 127 0 239 -1 249 0
9 1 17 -3 17 -9 0 -8 4 -8 13 -2 7 7 160 11 397 12 212 2 387 5 389 7 7 6 1
444 -5 467 -3 9 -1 17 4 17 9 0 22 -217 22 -387 0 -96 1 -103 20 -103 20 0 20
7 20 645 l0 645 -22 1 c-13 0 -185 1 -382 2 -277 2 -360 5 -363 15 -4 9 67 12
331 12 l336 0 0 265 0 265 -635 0 c-556 0 -635 -2 -635 -15 0 -8 -5 -15 -10
-15 -6 0 -9 6 -8 13 2 9 -25 13 -102 17 -125 6 -122 19 5 18 l90 0 3 306 2
306 -22 1 c-13 1 -31 0 -41 -1 -10 -1 -25 4 -32 10 -8 7 -22 10 -30 6 -8 -3
-15 -1 -15 4 0 15 47 12 53 -2 4 -10 6 -10 6 0 1 7 14 12 32 12 21 0 28 -4 23
-12 -5 -9 -2 -9 9 1 15 12 17 36 17 187 l0 174 -331 0 c-261 0 -329 -3 -323
-12 6 -10 4 -10 -7 0 -10 9 -84 12 -300 12 l-286 0 -7 -307 c-3 -170 -9 -470
-12 -668 -4 -198 -8 -363 -10 -366 -2 -4 -117 -5 -256 -4 l-253 3 -6 114 c-4
62 -7 277 -8 476 0 200 -3 368 -6 372 -3 5 116 8 265 7 l270 -2 0 188 0 187
-567 0 -566 0 6 -227z m1741 149 c3 -5 -1 -9 -9 -9 -8 0 -12 4 -9 9 3 4 7 8 9
8 2 0 6 -4 9 -8z m7 -65 c-10 -9 -11 -8 -5 6 3 10 9 15 12 12 3 -3 0 -11 -7
-18z m-11 -137 c0 -5 -5 -10 -11 -10 -5 0 -7 5 -4 10 3 6 8 10 11 10 2 0 4 -4
4 -10z m-1204 -83 c4 -4 -103 -6 -237 -5 l-244 2 220 6 c255 6 252 6 261 -3z
m1704 6 c-8 -3 -21 -10 -27 -16 -9 -7 -13 -5 -13 7 0 11 8 16 28 15 15 0 21
-3 12 -6z m-490 -193 c0 -5 -8 -10 -17 -10 -15 0 -16 2 -3 10 19 12 20 12 20
0z m-1649 -473 c-13 -13 -26 -3 -16 12 3 6 11 8 17 5 6 -4 6 -10 -1 -17z
m2549 -538 c0 -5 -38 -8 -84 -7 -47 1 -83 5 -81 8 6 10 165 9 165 -1z m30 7
c0 -3 -4 -8 -10 -11 -5 -3 -10 -1 -10 4 0 6 5 11 10 11 6 0 10 -2 10 -4z
m-787 -13 c-7 -2 -19 -2 -25 0 -7 3 -2 5 12 5 14 0 19 -2 13 -5z m75 0 c-10
-2 -28 -2 -40 0 -13 2 -5 4 17 4 22 1 32 -1 23 -4z m-885 -10 c-7 -2 -19 -2
-25 0 -7 3 -2 5 12 5 14 0 19 -2 13 -5z m-1073 -88 c0 -27 -5 -45 -11 -45 -8
0 -8 -4 1 -15 6 -8 10 -22 7 -32 -4 -14 -5 -13 -6 5 0 12 -5 22 -11 22 -5 0
-10 9 -10 21 0 13 4 18 13 13 9 -6 9 -5 0 7 -10 12 -10 18 0 28 9 11 9 14 -1
18 -13 5 -7 23 9 23 5 0 9 -20 9 -45z m785 -1224 c-6 -5 -25 10 -25 20 0 5 6
4 14 -3 8 -7 12 -15 11 -17z"/>
<path d="M4030 10065 l0 -175 240 0 c207 0 240 -2 240 -15 0 -13 -33 -15 -241
-15 l-241 0 4 -302 3 -303 630 0 630 0 5 250 c3 138 7 241 9 230 2 -11 3 -39
3 -62 0 -27 4 -43 11 -43 7 0 6 -4 -3 -10 -10 -7 -11 -10 -2 -10 8 0 12 -19
11 -62 -1 -35 -1 -117 0 -182 l1 -119 258 7 c164 5 261 11 267 18 7 8 6 9 -3
4 -10 -6 -12 42 -12 241 1 136 1 269 0 296 l0 47 -255 0 c-236 0 -255 -1 -256
-17 -1 -10 -2 -22 -4 -28 -1 -5 -3 -16 -3 -22 -4 -28 -17 -11 -19 23 -1 20 -4
38 -6 40 -2 2 -148 4 -325 4 -241 1 -333 4 -367 15 -25 7 -55 11 -68 8 -14 -3
-18 -2 -10 4 8 6 13 61 15 181 l3 172 -257 0 -258 0 0 -175z"/>
<path d="M5100 10065 l0 -175 95 0 95 0 0 175 0 175 -95 0 -95 0 0 -175z"/>
<path d="M5330 10065 l0 -175 220 -2 c121 -1 237 -2 257 -2 30 -1 38 3 43 21
3 16 9 20 18 14 8 -4 13 -11 13 -15 -5 -37 -12 -36 309 -36 l310 0 0 185 0
185 -585 0 -585 0 0 -175z"/>
<path d="M6530 10056 l0 -183 248 -5 c241 -4 360 -4 745 0 l187 2 0 185 0 185
-590 0 -590 0 0 -184z"/>
<path d="M7740 10055 l0 -185 266 0 c174 0 263 -3 259 -10 -9 -15 4 -12 21 4
8 9 11 22 7 32 -6 16 -5 17 9 4 8 -8 13 -20 11 -27 -3 -8 3 -11 16 -8 11 2
180 7 376 11 265 5 355 4 355 -4 0 -13 0 -13 -307 -12 l-203 1 0 -95 0 -96
198 -2 197 -3 3 -197 2 -198 85 0 85 0 0 485 0 485 -690 0 -690 0 0 -185z
m575 105 c3 -5 -1 -10 -9 -10 -9 0 -16 5 -16 10 0 6 4 10 9 10 6 0 13 -4 16
-10z m5 -75 c7 -8 9 -15 6 -15 -4 0 -14 7 -22 15 -9 8 -11 15 -6 15 5 0 15 -7
22 -15z m0 -55 c-23 -14 -25 -13 -26 19 l-2 30 22 -20 c18 -17 19 -21 6 -29z
m5 -59 c3 -5 2 -12 -3 -15 -5 -3 -9 1 -9 9 0 17 3 19 12 6z"/>
<path d="M9379 10236 c-2 -2 -3 -221 -1 -485 l2 -481 35 0 35 0 0 305 0 305
25 0 25 0 0 180 0 180 -58 0 c-32 0 -61 -2 -63 -4z"/>
<path d="M10053 9872 l-83 -3 0 -253 c0 -216 -2 -255 -15 -260 -13 -5 -15 28
-15 254 l0 260 -234 0 c-179 0 -235 -3 -237 -12 -2 -7 -3 -145 -1 -305 l3
-293 239 0 c207 0 240 -2 240 -15 0 -13 -34 -15 -245 -15 l-245 0 0 -184 0
-185 -497 4 c-443 2 -498 5 -508 19 -8 10 -27 16 -49 16 l-36 0 0 165 c0 158
-1 165 -20 165 -19 0 -26 -24 -21 -67 1 -7 -2 -13 -7 -13 -16 0 -30 23 -34 55
-3 29 -5 30 -58 33 -70 5 -509 -9 -492 -15 8 -3 12 -36 12 -116 0 -62 3 -176
7 -255 l6 -142 261 2 261 3 3 27 c3 24 5 26 23 15 10 -6 19 -20 19 -29 0 -16
15 -17 188 -11 131 4 194 3 208 -5 14 -9 -31 -11 -189 -12 -164 0 -211 -3
-222 -14 -8 -7 -13 -15 -12 -18 1 -2 -6 5 -16 15 -17 19 -30 19 -265 15 -245
-6 -288 -10 -275 -31 3 -5 1 -7 -5 -3 -5 3 -13 0 -16 -6 -3 -7 -4 -4 -3 7 2
20 -4 20 -298 20 l-300 0 0 -338 0 -337 -332 0 -333 0 0 -315 0 -315 38 -1
c20 0 125 0 233 1 168 1 197 -1 202 -15 4 -9 1 -15 -8 -15 -8 0 -15 6 -15 13
0 9 -2 9 -8 0 -6 -9 -67 -12 -226 -12 -120 0 -220 -2 -222 -4 -2 -2 -4 -65 -5
-140 0 -84 -4 -137 -10 -137 -6 0 -7 -4 -4 -10 3 -5 1 -10 -4 -10 -14 0 -14
13 1 28 9 9 9 12 0 12 -9 0 -12 33 -10 128 l3 127 -259 -2 c-142 -2 -261 -4
-263 -6 -4 -5 -14 -1362 -14 -1809 1 -189 -3 -298 -9 -298 -6 0 -11 109 -12
293 l-3 292 -247 3 -248 2 0 -290 c0 -187 -4 -290 -10 -290 -6 0 -10 104 -10
291 l0 291 -424 -3 -424 -4 2 325 c3 325 3 325 24 328 l22 3 0 -315 c0 -306 3
-338 31 -321 5 4 181 6 390 5 l379 -1 0 32 c0 18 3 29 8 25 7 -8 8 -13 11 -42
1 -10 9 -14 22 -12 21 3 21 6 19 307 0 202 -4 309 -12 318 -8 11 33 13 226 13
l236 0 0 430 0 430 -241 -2 -240 -3 -2 -467 c-2 -358 -5 -470 -14 -480 -10
-10 -13 -3 -13 35 l0 47 -360 0 c-233 0 -360 4 -360 10 0 6 127 10 360 10
l360 0 0 424 0 425 -367 5 c-450 5 -413 4 -413 18 0 9 -3 9 -12 0 -9 -9 -82
-12 -265 -12 l-253 0 0 -441 c0 -413 -1 -440 -17 -438 -10 1 -161 1 -335 0
l-318 -1 0 -310 0 -310 50 0 c69 0 63 -18 -7 -22 -49 -3 -58 -6 -55 -20 2 -10
-2 -18 -8 -18 -5 0 -10 10 -10 21 0 21 -1 21 -232 15 -128 -3 -257 -5 -285 -6
l-53 0 0 -42 c0 -24 -5 -50 -10 -58 -7 -11 -10 3 -10 45 l0 61 -47 -1 c-27 -1
-148 -2 -270 -3 l-223 -2 0 -280 c0 -154 -4 -280 -8 -280 -13 0 -14 22 -18
298 l-5 262 -294 0 -295 0 0 -301 0 -302 157 6 c167 7 267 8 723 7 l285 0 0
-365 0 -365 -295 -2 -295 -3 -3 -287 -2 -288 -195 0 -195 0 0 295 0 296 -77
-3 -78 -3 -3 -297 -2 -298 69 0 c39 0 73 -4 76 -10 4 -6 -22 -9 -72 -7 l-78 2
-3 -267 c-1 -179 -6 -268 -13 -268 -7 0 -10 82 -8 257 2 188 -1 258 -9 261
-17 5 -15 22 3 22 13 0 15 40 15 300 l0 300 -22 5 c-13 3 -126 4 -253 3 l-230
-3 -3 -103 c-1 -56 -7 -102 -11 -102 -5 0 -9 6 -8 13 0 6 -1 54 -1 105 l-2 92
-310 0 -310 0 0 -305 0 -305 310 0 310 0 1 63 c1 34 1 71 0 82 -2 49 18 -27
22 -80 2 -30 7 -58 10 -61 3 -3 64 -5 136 -5 72 0 129 -3 127 -7 -2 -4 -62 -9
-133 -11 -84 -2 -130 -7 -135 -14 -4 -7 -8 -132 -8 -279 0 -294 -4 -273 58
-268 15 1 22 -4 22 -17 0 -15 -2 -16 -10 -3 -8 12 -10 12 -16 -3 -3 -9 -17
-17 -30 -17 l-24 0 0 -300 c0 -193 -4 -300 -10 -300 -10 0 -14 220 -16 895 0
154 -2 286 -2 293 -2 9 -70 12 -304 12 l-303 0 3 -272 c2 -150 5 -279 7 -286
4 -10 25 -13 77 -12 106 2 118 1 118 -10 0 -6 -40 -10 -100 -10 l-100 0 0
-310 0 -310 138 -2 137 -1 -138 -10 -137 -9 -1 -397 c0 -218 0 -427 0 -466 2
-168 11 -1447 11 -1607 l0 -178 53 0 52 0 -2 522 c-2 288 1 539 6 558 5 19 14
61 21 93 l11 57 179 0 178 0 11 -31 c7 -19 11 -235 13 -611 3 -446 6 -582 16
-586 9 -3 12 54 12 247 l0 251 35 0 c19 0 35 -5 35 -11 0 -7 4 -8 13 -2 6 5
118 10 247 12 l235 2 -1 -203 c-1 -112 1 -188 3 -170 2 18 10 32 18 32 7 0 16
6 18 13 3 6 6 -30 6 -80 l1 -93 280 0 280 0 0 245 0 245 -280 0 c-180 0 -280
4 -280 10 0 6 32 10 75 10 68 0 135 18 135 36 0 2 -9 0 -19 -6 -11 -5 -22 -10
-25 -10 -3 0 -6 92 -6 205 0 145 3 205 11 205 8 0 8 4 1 12 -5 7 -10 37 -11
66 l-1 52 140 0 140 0 0 -280 0 -281 66 3 65 3 2 355 2 355 573 3 572 2 0
-360 0 -360 333 2 332 3 3 357 2 358 545 0 545 0 0 -355 0 -355 100 0 100 0 1
93 c1 50 1 126 1 167 -1 73 -1 74 12 40 10 -26 11 -39 2 -49 -8 -11 -8 -13 2
-7 9 6 12 -21 12 -118 l0 -126 249 0 249 0 7 30 c9 41 20 45 20 7 l0 -32 283
-3 282 -2 0 356 c0 280 3 355 13 352 9 -4 13 -86 15 -356 l2 -352 325 0 325 0
0 355 c0 309 2 355 15 355 13 0 15 -46 15 -355 l0 -355 51 0 52 0 -6 355 -6
355 274 0 275 0 0 -360 0 -360 65 0 c55 0 65 3 66 18 0 9 2 156 5 327 5 367 5
369 39 371 16 1 22 -2 18 -10 -5 -7 -2 -7 8 1 22 18 176 14 183 -4 3 -7 6
-164 6 -349 1 -252 4 -336 13 -339 7 -2 33 -6 60 -9 40 -5 47 -3 48 12 0 13 3
11 9 -5 8 -20 16 -23 70 -23 l60 0 0 365 0 365 163 0 c89 0 206 3 260 7 l97 6
0 -356 0 -357 65 0 65 0 0 695 0 695 163 0 162 0 -7 -402 c-5 -222 -7 -536 -5
-698 l2 -295 39 -3 39 -3 -6 692 c-5 471 -10 695 -17 699 -7 4 -6 11 5 20 8 7
15 21 15 32 0 10 4 17 10 13 6 -4 6 -15 0 -30 l-10 -25 240 0 240 0 0 60 0 60
-199 0 -199 0 -4 29 c-2 17 -6 158 -7 316 l-3 286 204 -3 203 -3 3 318 2 317
-235 0 -235 0 0 -127 c0 -71 -3 -210 -7 -310 -3 -104 -2 -188 3 -195 5 -7 7
-123 4 -268 l-6 -255 -3 195 c-2 107 -4 223 -4 258 0 54 -2 62 -19 62 -15 0
-17 -5 -12 -25 4 -15 2 -25 -5 -25 -6 0 -11 11 -11 25 l0 25 -205 0 -205 0 -2
-372 c-3 -324 -5 -373 -18 -373 -8 0 -14 5 -13 10 0 6 4 171 9 368 l7 358 -22
6 -21 5 0 334 1 333 27 3 27 3 0 165 c1 91 -1 211 -3 268 l-3 102 -90 0 c-53
0 -89 4 -89 10 0 6 37 10 90 10 l90 0 0 305 0 305 -90 0 c-53 0 -90 4 -90 10
0 6 37 10 90 10 l90 0 0 331 c0 260 3 330 13 326 9 -3 12 -78 12 -328 l0 -324
195 0 195 0 3 330 c1 199 6 333 12 339 7 7 10 -103 10 -321 0 -280 2 -332 15
-343 13 -11 15 62 15 624 l0 636 -233 1 c-127 1 -272 4 -322 8 l-90 8 83 1 82
2 0 273 c0 350 10 647 23 647 6 0 7 -86 2 -227 -3 -126 -3 -333 1 -460 l7
-233 203 0 204 0 0 580 c0 572 0 580 20 580 19 0 20 -8 22 -247 l3 -248 388
-2 387 -2 0 767 0 767 -112 -2 c-62 -1 -125 -5 -140 -9 -15 -3 -40 -3 -55 1
l-28 7 22 16 c17 13 23 30 26 70 2 28 0 52 -3 52 -4 0 -7 6 -8 13 -1 15 -2
417 0 437 0 8 -2 43 -5 78 -7 67 0 77 24 35 13 -23 15 -63 12 -223 -4 -290 -3
-441 3 -451 3 -5 63 -9 135 -8 l129 0 0 335 0 334 -80 0 -80 0 0 285 0 285 80
0 80 0 0 309 0 310 -52 -2 c-29 -1 -90 -3 -135 -5z m-1743 -738 c0 -8 5 -14
10 -14 6 0 10 -6 10 -12 -1 -7 -10 -2 -20 11 -21 25 -27 46 -10 36 6 -3 10
-13 10 -21z m-583 -526 c-3 -8 -6 -5 -6 6 -1 11 2 17 5 13 3 -3 4 -12 1 -19z
m42 -603 c2 -3 -2 -12 -10 -22 -9 -11 -10 -14 -2 -9 10 5 13 -58 15 -291 l3
-298 173 -3 c103 -1 172 -6 172 -12 0 -6 -66 -10 -170 -10 -107 0 -170 -4
-170 -10 0 -5 5 -10 10 -10 6 0 10 -95 10 -265 0 -170 -4 -265 -10 -265 -6 0
-10 95 -10 265 l0 265 -88 0 c-49 0 -184 3 -300 7 -167 5 -212 9 -212 20 0 9
17 13 63 13 l62 0 -2 62 c-2 35 -4 177 -5 315 l-3 252 125 3 c142 3 342 -1
349 -7z m-605 -91 c3 -26 6 -429 6 -895 0 -748 -2 -849 -15 -849 -13 0 -15 72
-15 590 0 591 0 595 -31 592 -3 -1 -6 6 -6 14 0 8 9 14 19 14 17 0 18 16 20
278 0 152 1 283 1 290 -1 6 3 12 7 12 4 0 10 -21 14 -46z m-197 -540 c-3 -3
-12 -4 -19 -1 -8 3 -5 6 6 6 11 1 17 -2 13 -5z m63 -17 c9 -3 4 -6 -12 -6 -21
-1 -26 3 -21 15 3 9 9 11 12 6 3 -5 13 -12 21 -15z m-2503 -119 c-2 -18 -4 -6
-4 27 0 33 2 48 4 33 2 -15 2 -42 0 -60z m1923 -208 c0 -5 -4 -10 -10 -10 -5
0 -10 5 -10 10 0 6 5 10 10 10 6 0 10 -4 10 -10z m-1084 -1015 c-1 -24 -5 -47
-9 -51 -4 -4 -6 16 -5 44 2 29 6 52 10 52 3 0 5 -20 4 -45z m4004 -520 l0
-225 -25 -6 c-18 -4 -166 -2 -266 6 -4 0 -7 101 -8 225 l-2 225 151 0 150 0 0
-225z m-6613 183 c-3 -8 -6 -5 -6 6 -1 11 2 17 5 13 3 -3 4 -12 1 -19z m487 6
c14 -5 16 -32 16 -194 0 -170 -2 -189 -17 -195 -29 -11 -380 -18 -387 -7 -5 8
-10 238 -7 355 l1 47 189 0 c104 0 196 -3 205 -6z m-487 -226 c-1 -40 -3 -10
-3 67 0 77 1 110 3 73 2 -37 2 -100 0 -140z m6223 -262 c0 -11 -10 -14 -37
-11 -21 1 -55 3 -75 4 -21 1 -38 6 -38 11 0 6 32 10 75 10 59 0 75 -3 75 -14z
m-5510 -881 l0 -125 -245 0 -245 0 0 -100 0 -100 248 -2 247 -3 3 -295 c1
-162 0 -305 -3 -317 l-5 -23 -365 0 -365 0 0 125 0 125 255 0 255 0 0 80 0 79
-137 3 -137 3 0 80 -1 80 -117 3 -118 3 0 254 0 255 365 0 365 0 0 -125z m815
0 l0 -120 -119 -3 -119 -3 7 -414 6 -415 -125 0 -125 0 0 415 0 415 -90 0 -90
0 0 125 0 125 328 -2 327 -3 0 -120z m1107 8 l3 -118 72 -3 72 -3 3 118 3 118
428 3 427 2 0 -125 0 -125 -330 0 -329 0 2 -292 2 -293 328 -3 327 -2 0 -125
0 -125 -430 0 -430 0 0 95 0 95 -75 0 -75 0 0 -95 0 -95 -460 0 -460 0 0 238
c0 130 -3 368 -7 529 -3 161 -3 299 0 308 6 13 60 15 466 15 l460 0 3 -117z
m1384 67 c0 -25 1 -125 2 -222 l2 -178 85 0 85 0 0 110 0 110 105 0 105 0 0
115 0 115 115 0 115 0 0 -125 0 -125 -94 0 -94 0 -7 -252 c-4 -139 -5 -271 -3
-293 l3 -40 98 -3 98 -3 -3 -122 -3 -122 -215 0 -215 0 -3 203 -2 202 -85 0
-85 0 -2 -202 -3 -203 -110 -5 c-60 -3 -113 -4 -117 -2 -10 4 -10 1076 -1
1086 4 3 57 5 117 4 l111 -3 1 -45z m-5703 -181 c-4 -4 -7 11 -6 34 2 56 5 61
10 13 3 -21 1 -42 -4 -47z m0 -34 c4 -8 3 -16 -1 -19 -4 -3 -9 4 -9 15 -2 23
3 25 10 4z m0 -60 c-3 -9 -8 -14 -10 -11 -3 3 -2 9 2 15 9 16 15 13 8 -4z
m327 -225 c0 -5 -7 -10 -16 -10 -8 0 -12 5 -9 10 3 6 10 10 16 10 5 0 9 -4 9
-10z m30 0 c0 -5 -2 -10 -4 -10 -3 0 -8 5 -11 10 -3 6 -1 10 4 10 6 0 11 -4
11 -10z m-720 -590 c0 -5 -10 -10 -22 -9 -22 0 -22 1 -3 9 11 5 21 9 23 9 1 1
2 -3 2 -9z m25 0 c3 -5 1 -10 -4 -10 -6 0 -11 5 -11 10 0 6 2 10 4 10 3 0 8
-4 11 -10z m55 -5 c0 -2 -9 -3 -19 -2 -11 0 -18 5 -15 9 4 6 34 0 34 -7z
m2400 -735 l0 -620 -125 0 -125 0 -2 253 -3 252 -92 3 -92 3 -3 -108 c-2 -59
-6 -107 -10 -105 -5 1 -89 2 -188 2 l-180 0 0 105 0 106 -97 -3 -98 -3 0 -253
0 -252 -127 0 -128 0 0 615 0 615 130 0 130 0 0 -125 0 -124 103 -3 102 -3 1
-60 c1 -33 2 -88 3 -122 l1 -63 175 0 174 0 3 123 3 122 96 3 97 3 6 31 c3 17
6 75 6 129 l0 99 120 0 120 0 0 -620z m1090 490 l0 -130 100 0 100 0 2 -172
c0 -95 0 -303 -1 -463 -1 -159 -1 -302 -1 -317 l0 -28 -150 0 -150 0 0 145 0
145 -270 0 -270 0 0 -145 0 -145 -134 0 -133 0 -8 265 c-4 146 -4 364 0 485
l8 220 128 0 129 0 0 135 0 135 325 0 325 0 0 -130z m2328 121 c9 -1 12 -34
12 -131 l0 -130 -305 0 -305 0 0 -120 0 -120 190 0 190 0 0 -110 0 -110 -192
-2 -193 -3 0 -110 0 -110 313 -3 312 -2 0 -145 0 -146 -444 3 c-244 2 -448 6
-452 10 -3 4 -8 18 -9 32 -2 18 1 23 12 19 12 -5 12 -7 1 -14 -10 -7 -9 -9 4
-9 14 0 17 9 15 59 -2 52 -4 58 -19 50 -26 -14 -31 -11 -13 7 9 9 13 19 9 23
-4 3 -9 0 -11 -7 -4 -10 -9 -8 -20 7 -14 21 -38 28 -47 13 -6 -10 59 -82 75
-82 5 0 7 5 3 12 -4 7 -3 8 5 4 17 -11 3 -26 -24 -26 -17 0 -23 -4 -19 -14 3
-8 1 -23 -6 -33 -10 -16 -10 -15 -5 5 7 23 7 23 -19 7 -24 -16 -39 -34 -16
-20 6 3 10 1 10 -4 0 -6 -4 -11 -10 -11 -5 0 -9 -6 -7 -12 1 -10 -29 -14 -120
-16 l-123 -3 0 146 0 145 110 0 110 0 0 133 c0 90 -4 137 -12 145 -9 9 -9 12
0 12 9 0 12 50 12 195 l0 195 -110 0 -110 0 0 -120 0 -120 -95 0 -95 0 -1 -67
c-1 -38 -3 -85 -5 -105 l-3 -38 99 0 100 0 0 -110 0 -110 -135 0 -135 0 0 105
0 105 -95 0 -95 0 0 -93 c0 -88 2 -95 23 -105 l22 -11 -22 0 c-22 -1 -23 -4
-25 -148 l-3 -148 -140 0 -140 0 -3 105 c-2 58 0 336 3 618 l7 512 134 0 134
0 0 -129 c0 -72 3 -132 8 -134 4 -2 109 -2 235 1 l227 5 0 128 0 129 124 0
125 0 -6 -479 -6 -479 24 -4 c13 -1 41 -1 62 1 l37 3 1 212 c0 116 1 272 3
346 1 74 3 197 4 272 l2 137 413 -3 c226 -3 418 -5 425 -5z m2186 -84 c3 -49
6 -110 6 -134 l0 -43 -215 0 -215 0 0 -485 0 -485 -135 0 -135 0 0 480 0 481
-127 -3 -128 -3 -3 -222 -2 -223 -223 -2 -222 -3 -3 -258 -2 -258 -108 3 -107
3 -3 251 -2 251 -92 7 c-50 3 -142 6 -205 6 l-113 0 0 360 0 360 115 0 115 0
0 -168 c0 -93 3 -203 6 -245 l7 -77 287 0 287 0 6 143 c4 78 7 190 7 250 l0
107 599 -1 598 -1 7 -91z m636 -542 c0 -30 -4 -55 -10 -55 -5 0 -10 25 -10 55
0 30 5 55 10 55 6 0 10 -25 10 -55z m0 -75 c0 -5 -4 -10 -10 -10 -5 0 -10 5
-10 10 0 6 5 10 10 10 6 0 10 -4 10 -10z m-2 -75 c-3 -3 -9 2 -12 12 -6 14 -5
15 5 6 7 -7 10 -15 7 -18z m-4395 -162 c-7 -2 -21 -2 -30 0 -10 3 -4 5 12 5
17 0 24 -2 18 -5z m687 -285 c0 -5 -14 -8 -31 -8 -18 0 -28 4 -24 10 4 6 15 8
26 5 15 -5 18 -3 13 12 -5 15 -4 16 5 3 6 -8 11 -18 11 -22z m135 -728 c3 -5
1 -19 -5 -30 -7 -13 -7 -20 0 -20 16 0 14 -430 -2 -431 -10 0 -10 -2 0 -6 13
-5 7 -23 -9 -23 -6 0 -9 98 -9 260 1 234 6 281 25 250z m2435 -355 c0 -19 -4
-35 -8 -35 -4 0 -6 16 -4 35 2 19 6 35 8 35 2 0 4 -16 4 -35z m-6671 -220 c2
-107 0 -124 -13 -119 -12 5 -15 27 -15 117 1 98 5 121 24 127 1 0 2 -56 4
-125z m4241 15 c0 -22 -5 -40 -11 -40 -5 0 -7 -5 -3 -12 4 -7 3 -8 -4 -4 -15
9 -16 36 -2 36 12 0 9 22 -5 32 -6 5 -4 8 5 8 13 0 13 1 0 10 -13 8 -12 10 3
10 13 0 17 -9 17 -40z m2427 -32 c-2 -13 -4 -3 -4 22 0 25 2 35 4 23 2 -13 2
-33 0 -45z m0 -70 c-3 -8 -6 -5 -6 6 -1 11 2 17 5 13 3 -3 4 -12 1 -19z"/>
<path d="M4690 3890 l0 -299 73 4 c39 2 138 4 220 4 l147 1 0 295 0 295 -220
0 -220 0 0 -300z"/>
<path d="M3642 2690 c2 -121 6 -222 9 -224 2 -2 122 -7 266 -11 l262 -7 3 97
c2 54 2 144 0 201 -3 95 -5 104 -23 104 -10 0 -19 5 -19 11 0 6 9 8 20 4 23
-7 28 10 5 19 -26 10 -47 -5 -42 -30 2 -13 0 -21 -4 -18 -5 3 -9 12 -9 21 0
10 -6 14 -19 10 -11 -3 -22 1 -25 8 -3 9 2 12 15 10 17 -4 19 -2 9 10 -10 12
-52 15 -233 15 l-220 0 5 -220z"/>
<path d="M4940 2780 l0 -110 95 0 95 0 0 110 0 110 -95 0 -95 0 0 -110z"/>
<path d="M5744 2192 c3 -6 -2 -12 -11 -14 -16 -3 -15 -5 5 -16 19 -11 22 -10
22 7 0 11 -5 23 -12 27 -6 4 -8 3 -4 -4z"/>
<path d="M5677 2159 c3 -12 11 -18 19 -15 9 4 14 -2 14 -15 0 -11 4 -17 10
-14 6 4 17 1 26 -5 12 -11 14 -9 11 11 -3 15 -11 24 -21 24 -10 0 -22 8 -27
18 -14 25 -38 22 -32 -4z"/>
<path d="M5657 2070 c2 -14 5 -32 7 -40 2 -8 -2 -19 -8 -23 -7 -6 -6 -7 4 -4
17 4 27 57 11 57 -5 0 -12 8 -14 18 -2 9 -3 6 0 -8z"/>
<path d="M8231 9853 c-1 -10 -57 -13 -244 -13 l-243 0 4 -286 c4 -276 4 -286
-14 -282 -18 3 -19 18 -22 286 l-2 282 -915 0 -915 0 0 -27 c-1 -16 -2 -146
-3 -291 l-2 -262 100 -1 c814 -7 1764 -8 2005 -3 l306 6 -1 32 c0 22 4 30 15
28 11 -2 11 1 -2 11 -19 15 -24 42 -9 51 5 3 7 15 4 25 -3 10 0 22 6 25 15 10
14 26 -1 21 -10 -4 -12 37 -10 190 l4 195 -25 0 c-14 0 -28 6 -30 13 -4 10 -6
10 -6 0z"/>
<path d="M8337 9853 c-4 -3 -7 -138 -7 -300 0 -286 0 -293 20 -293 20 0 20 7
20 289 0 229 -3 291 -13 300 -8 6 -17 8 -20 4z"/>
<path d="M6203 9232 c-211 -1 -333 -6 -333 -12 0 -6 -9 -10 -20 -10 -11 0 -20
5 -20 10 0 6 -90 10 -250 10 l-250 0 0 -270 0 -270 30 0 c18 0 33 6 36 15 5
13 39 15 220 15 182 0 216 2 220 15 4 8 10 15 16 15 5 0 7 -4 4 -9 -12 -18 31
-21 300 -21 l275 0 -5 -202 c-2 -112 -5 -267 -5 -345 l-1 -143 -230 0 -230 0
0 320 0 320 -39 0 -39 0 5 -322 c3 -178 7 -325 9 -327 4 -5 142 -6 417 -3
l227 2 0 346 c0 227 -3 343 -10 339 -5 -3 -10 -1 -10 4 0 8 97 11 305 11 168
0 305 -3 305 -7 0 -5 133 -7 295 -5 l295 3 0 259 0 260 -47 2 c-79 3 -1113 3
-1470 0z m-350 -62 c3 -11 1 -18 -4 -14 -5 3 -9 12 -9 20 0 20 7 17 13 -6z
m10 -44 c4 -10 1 -13 -7 -10 -10 4 -14 -3 -12 -20 0 -14 4 -26 9 -26 4 0 7 -4
7 -10 0 -5 -7 -10 -15 -10 -19 0 -21 60 -3 78 15 15 15 15 21 -2z"/>
<path d="M467 9202 c-16 -3 -17 -48 -17 -593 l0 -589 295 0 295 0 0 320 0 320
-286 0 c-187 0 -283 3 -279 10 4 6 110 10 287 10 l280 0 -6 23 c-3 12 -6 131
-6 265 l0 243 -273 -3 c-150 -2 -281 -4 -290 -6z"/>
<path d="M0 8943 l0 -258 208 0 207 0 3 258 2 257 -210 0 -210 0 0 -257z"/>
<path d="M0 8345 l0 -325 208 2 207 3 3 323 2 322 -210 0 -210 0 0 -325z"/>
<path d="M1582 7693 l3 -318 25 -1 c14 -1 50 -3 80 -5 l55 -3 3 322 2 322 -85
0 -86 0 3 -317z"/>
<path d="M0 7690 l0 -310 210 0 210 0 0 310 0 310 -210 0 -210 0 0 -310z"/>
<path d="M450 7685 l0 -315 308 2 307 3 -1 180 c-1 99 -2 240 -2 313 l-2 132
-305 0 -305 0 0 -315z"/>
<path d="M1097 7993 c-2 -5 -3 -145 -3 -313 l2 -305 53 -3 c60 -3 67 2 66 50
-1 18 -2 156 -3 306 l-2 272 -54 0 c-30 0 -57 -3 -59 -7z"/>
<path d="M5903 7993 c-10 -3 -13 -69 -13 -278 0 -150 3 -287 6 -304 l7 -31
263 0 264 0 0 294 c0 162 -3 301 -6 310 -5 14 -37 16 -258 15 -138 0 -257 -3
-263 -6z"/>
<path d="M3952 6924 c3 -431 3 -439 23 -440 11 0 25 3 31 8 8 5 10 132 6 430
-2 233 -5 424 -5 425 -1 1 -14 4 -30 8 l-27 7 2 -438z"/>
<path d="M457 7343 c-4 -3 -7 -197 -7 -430 l0 -423 312 0 311 0 -6 113 c-4 61
-7 255 -7 430 l0 317 -298 0 c-164 0 -302 -3 -305 -7z"/>
<path d="M1098 7344 c-9 -8 -11 -848 -2 -856 5 -5 5 -237 1 -564 -1 -64 2 -85
16 -98 9 -10 21 -14 27 -11 6 4 10 123 10 331 l0 324 215 0 215 -1 0 -142 c0
-78 3 -220 7 -315 l6 -172 296 2 296 3 3 45 c2 25 8 50 13 55 7 7 10 7 9 0 -2
-5 -2 -31 -1 -57 l1 -48 218 0 c119 0 241 3 270 6 l52 7 0 308 0 309 -272 0
c-150 0 -411 0 -580 0 l-308 -1 0 436 0 435 -199 0 c-109 0 -218 3 -242 6 -24
3 -47 2 -51 -2z m1112 -994 c0 -5 -2 -10 -4 -10 -3 0 -8 5 -11 10 -3 6 -1 10
4 10 6 0 11 -4 11 -10z m-6 -35 c3 -9 0 -15 -9 -15 -9 0 -12 6 -9 15 4 8 7 15
9 15 2 0 5 -7 9 -15z m6 -225 c0 -5 -2 -10 -4 -10 -3 0 -8 5 -11 10 -3 6 -1
10 4 10 6 0 11 -4 11 -10z m-3 -42 c-3 -8 -6 -5 -6 6 -1 11 2 17 5 13 3 -3 4
-12 1 -19z m3 -33 c0 -8 -4 -15 -10 -15 -5 0 -7 7 -4 15 4 8 8 15 10 15 2 0 4
-7 4 -15z m-2 -50 c-3 -3 -9 2 -12 12 -6 14 -5 15 5 6 7 -7 10 -15 7 -18z"/>
<path d="M228 6463 l-228 -3 0 -630 0 -629 98 -4 97 -3 -97 -2 -98 -2 0 -330
0 -330 210 0 210 0 -2 328 -3 327 -110 6 -110 5 113 2 112 2 0 286 c0 261 -2
288 -17 301 -10 8 -13 12 -7 9 32 -16 36 21 33 333 -2 170 0 313 4 317 4 4 10
4 14 0 4 -3 2 -383 -3 -844 -6 -460 -8 -890 -6 -954 l3 -118 147 -2 c81 -1
221 -2 312 -3 l165 0 0 330 0 330 -60 5 c-55 5 -57 6 -25 13 19 3 46 8 60 9
l25 3 3 278 c1 173 6 277 12 277 7 0 10 -221 10 -623 l0 -623 36 4 37 5 -8
561 c-4 308 -8 575 -9 591 -1 17 -3 46 -4 67 -2 31 -5 35 -22 31 -15 -4 -19
-2 -14 10 4 12 1 14 -15 10 -21 -5 -21 -5 -21 331 l0 336 -307 -2 c-170 -2
-410 -4 -535 -5z m826 -668 c-7 -18 -100 -19 -123 -1 -12 9 -13 8 -6 -4 8 -13
7 -13 -8 -1 -9 7 -17 15 -17 17 0 2 36 4 80 4 67 0 78 -2 74 -15z m-74 -315
l0 -220 -220 0 -220 0 0 220 0 220 220 0 220 0 0 -220z"/>
<path d="M2770 6160 l0 -310 285 0 285 0 0 310 0 310 -285 0 -285 0 0 -310z"/>
<path d="M9454 6290 c0 -69 1 -97 3 -62 2 34 2 90 0 125 -2 34 -3 6 -3 -63z"/>
<path d="M9453 6095 c0 -22 2 -30 4 -17 2 12 2 30 0 40 -3 9 -5 -1 -4 -23z"/>
<path d="M9942 5518 l3 -313 148 -3 147 -3 0 316 0 315 -150 0 -150 0 2 -312z"/>
<path d="M1588 4868 l-3 -333 86 -3 c64 -1 90 2 98 12 8 9 11 105 9 332 l-3
319 -92 3 -92 3 -3 -333z m39 260 c-2 -13 -4 -5 -4 17 -1 22 1 32 4 23 2 -10
2 -28 0 -40z m0 -210 c-2 -13 -4 -5 -4 17 -1 22 1 32 4 23 2 -10 2 -28 0 -40z"/>
<path d="M10034 5182 l-89 -3 0 -332 c0 -259 3 -332 13 -331 6 1 73 2 147 3
l135 1 0 329 0 329 -59 4 c-32 1 -98 2 -147 0z"/>
<path d="M0 4205 l0 -305 204 0 204 0 4 298 c2 163 2 300 0 305 -2 4 -95 7
-208 7 l-204 0 0 -305z"/>
<path d="M9012 4198 l3 -303 200 0 200 0 3 230 c2 127 0 263 -3 303 l-7 72
-199 0 -199 0 2 -302z"/>
<path d="M9460 4200 l0 -300 238 0 238 0 0 300 -1 300 -237 0 -238 0 0 -300z"/>
<path d="M9970 4200 l0 -300 135 0 135 0 0 300 0 300 -135 0 -135 0 0 -300z"/>
<path d="M0 3845 l0 -35 205 0 205 0 0 35 0 35 -205 0 -205 0 0 -35z"/>
<path d="M9017 3863 c-3 -5 -2 -125 1 -268 l7 -260 195 0 195 0 0 265 0 265
-197 3 c-108 1 -199 -1 -201 -5z"/>
<path d="M9465 3858 c-3 -8 -4 -128 -3 -268 l3 -255 235 0 235 0 0 265 0 265
-233 3 c-182 2 -234 0 -237 -10z"/>
<path d="M9972 3603 l3 -268 133 -3 132 -3 0 271 0 270 -135 0 -135 0 2 -267z"/>
<path d="M9977 3293 c-4 -3 -7 -145 -7 -315 l0 -308 135 0 135 0 0 315 0 315
-128 0 c-71 0 -132 -3 -135 -7z"/>
<path d="M0 2750 l0 -70 220 0 221 0 -3 68 -3 67 -217 3 -218 2 0 -70z"/>
<path d="M10070 1920 c0 -6 -28 -10 -65 -10 l-65 0 0 -700 0 -700 69 0 c39 0
73 -4 76 -10 4 -6 -17 -10 -54 -10 l-61 0 0 -165 0 -165 55 0 55 0 0 -80 0
-80 80 0 80 0 0 965 0 965 -85 0 c-50 0 -85 -4 -85 -10z"/>
<path d="M0 1580 l0 -340 215 0 215 0 0 340 0 340 -215 0 -215 0 0 -340z"/>
<path d="M1835 570 c3 -5 8 -10 11 -10 2 0 4 5 4 10 0 6 -5 10 -11 10 -5 0 -7
-4 -4 -10z"/>
<path d="M5107 504 c-4 -4 -7 -119 -7 -256 l0 -248 660 0 660 0 0 249 0 249
-24 4 c-13 3 -139 6 -280 7 l-256 2 -1 -103 c-1 -57 0 -113 1 -125 2 -24 -14
-31 -26 -11 -5 7 -3 8 7 3 11 -7 12 -6 2 6 -13 16 -12 36 0 57 5 7 3 12 -3 12
-7 0 -11 14 -10 33 1 17 2 53 1 80 l-1 47 -244 0 c-135 0 -247 -4 -250 -8 -3
-5 -6 -43 -8 -84 -2 -47 -7 -74 -13 -71 -5 3 -4 0 3 -8 6 -7 12 -21 12 -32 0
-16 -2 -17 -15 -4 -10 10 -15 43 -17 108 l-3 94 -90 3 c-50 1 -94 0 -98 -4z"/>
<path d="M6450 250 l0 -250 325 0 325 0 0 250 0 250 -325 0 -325 0 0 -250z"/>
<path d="M7137 343 c-4 -87 -7 -200 -7 -250 l0 -93 305 0 305 0 0 238 c0 172
-3 241 -12 250 -9 9 -89 12 -298 12 l-287 0 -6 -157z"/>
<path d="M7776 492 c-5 -9 -10 -241 -7 -409 l1 -83 260 0 260 0 0 245 0 245
-224 0 c-123 0 -237 3 -254 6 -16 3 -32 2 -36 -4z"/>
<path d="M0 245 l0 -245 221 0 220 0 -3 243 -3 242 -217 3 -218 2 0 -245z"/>
<path d="M2210 245 l0 -245 285 0 285 0 -2 243 -3 242 -282 3 -283 2 0 -245z"/>
<path d="M2820 245 l0 -245 255 0 255 0 0 214 c0 117 3 228 6 245 l7 31 -262
0 -261 0 0 -245z"/>
<path d="M3377 483 c-4 -3 -7 -114 -7 -245 l0 -238 320 0 320 0 0 245 0 245
-313 0 c-173 0 -317 -3 -320 -7z"/>
<path d="M4030 245 l0 -245 245 0 245 0 0 245 0 245 -245 0 -245 0 0 -245z"/>
<path d="M8330 245 l0 -245 545 0 545 0 0 245 0 245 -205 0 -205 0 -1 -77 c-1
-43 -1 -84 0 -92 2 -7 -2 -10 -7 -7 -6 3 -13 0 -15 -6 -3 -7 -6 24 -6 69 -1
45 -4 88 -7 97 -5 14 -43 16 -325 16 l-319 0 0 -245z"/>
<path d="M9470 325 l0 -165 230 0 230 0 0 165 0 165 -230 0 -230 0 0 -165z"/>
<path d="M1083 385 c0 -22 2 -30 4 -17 2 12 2 30 0 40 -3 9 -5 -1 -4 -23z"/>
<path d="M1081 284 c0 -11 3 -14 6 -6 3 7 2 16 -1 19 -3 4 -6 -2 -5 -13z"/>
<path d="M1084 125 c0 -72 1 -99 3 -62 2 37 2 96 0 130 -2 34 -3 4 -3 -68z"/>
<path d="M4573 160 c0 -47 2 -66 4 -42 2 23 2 61 0 85 -2 23 -4 4 -4 -43z"/>
<path d="M4572 45 c0 -17 2 -22 5 -12 2 9 2 23 0 30 -3 6 -5 -1 -5 -18z"/>
</g>
</svg>
